{"title":"Deewangi Deewangi - Om Shanti Om - XviD AC3 - Blue Ray","uid":4940552,"size":401793024,"categoryP":"video","categoryS":"music_videos","magnet":"?xt=urn:btih:fcc8694189d269e8796453ea81dd3ff6ade90198&amp;dn=Deewangi+Deewangi+-+Om+Shanti+Om+-+XviD+AC3+-+Blue+Ray&amp;tr=udp%3A%2F%2Ftracker.openbittorrent.com%3A80&amp;tr=udp%3A%2F%2Fopen.demonii.com%3A1337&amp;tr=udp%3A%2F%2Ftracker.coppersurfer.tk%3A6969&amp;tr=udp%3A%2F%2Fexodus.desync.com%3A6969","seeders":0,"leechers":0,"uploader":"ictorrents","files":1,"time":1244435931,"description":"Source                           : M2TV Rip\nFormat/Info                      : Audio Video Interleave\nFile size                        : 383 MiB\nDuration                         : 9mn 36s\nOverall bit rate                 : 5 572 Kbps\nWriting application              : Nandub v1.0rc2\nWriting library                  : Nandub build 1853/release\n\nVideo\nFormat                           : MPEG-4 Visual\nFormat profile                   : Streaming Video@L1\nFormat settings, BVOP            : Yes\nFormat settings, QPel            : No\nFormat settings, GMC             : No warppoints\nFormat settings, Matrix          : Default (MPEG)\nCodec ID                         : XVID\nCodec ID/Hint                    : XviD\nDuration                         : 9mn 36s\nBit rate                         : 4 808 Kbps\nWidth                            : 720 pixels\nHeight                           : 304 pixels\nDisplay aspect ratio             : 2.35\nFrame rate                       : 23.976 fps\nResolution                       : 24 bits\nColorimetry                      : 4:2:0\nScan type                        : Progressive\nBits/(Pixel*Frame)               : 0.916\nStream size                      : 331 MiB (86%)\nWriting library                  : XviD 1.2.1 (UTC 2008-12-04)\n\nAudio\nFormat                           : DTS\nFormat/Info                      : Digital Theater Systems\nCodec ID                         : 2001\nCodec ID/Info                    : Digital Theater Systems\nDuration                         : 9mn 36s\nBit rate mode                    : Constant\nBit rate                         : 755 Kbps\nChannel(s)                       : 6 channels\nChannel positions                : Front: L C R, Surround: L R, LFE\nSampling rate                    : 48.0 KHz\nResolution                       : 24 bits\nVideo delay                      : 6ms\nStream size                      : 51.9 MiB (14%)\nAlignment                        : Split accross interleaves\nInterleave, duration             : 42 ms (1.00 video frame)\nInterleave, preload duration     : 499 ms\n\nSS\n &lt;a href=&quot;\nhttp://i333.photobucket.com/albums/m393/vrutin/OSO/vlcsnap-1766177.png&quot; rel=&quot;nofollow&quot; target=&quot;_NEW&quot;&gt;\nhttp://i333.photobucket.com/albums/m393/vrutin/OSO/vlcsnap-1766177.png&lt;/a&gt;\n &lt;a href=&quot;\nhttp://i333.photobucket.com/albums/m393/vrutin/OSO/vlcsnap-1766965.png&quot; rel=&quot;nofollow&quot; target=&quot;_NEW&quot;&gt;\nhttp://i333.photobucket.com/albums/m393/vrutin/OSO/vlcsnap-1766965.png&lt;/a&gt;\n &lt;a href=&quot;\nhttp://i333.photobucket.com/albums/m393/vrutin/OSO/vlcsnap-1769378.png&quot; rel=&quot;nofollow&quot; target=&quot;_NEW&quot;&gt;\nhttp://i333.photobucket.com/albums/m393/vrutin/OSO/vlcsnap-1769378.png&lt;/a&gt;","torrent":{"xt":"urn:btih:fcc8694189d269e8796453ea81dd3ff6ade90198","amp;dn":"Deewangi+Deewangi+-+Om+Shanti+Om+-+XviD+AC3+-+Blue+Ray","amp;tr":["udp%3A%2F%2Ftracker.openbittorrent.com%3A80","udp%3A%2F%2Fopen.demonii.com%3A1337","udp%3A%2F%2Ftracker.coppersurfer.tk%3A6969","udp%3A%2F%2Fexodus.desync.com%3A6969"],"infoHash":"fcc8694189d269e8796453ea81dd3ff6ade90198","infoHashBuffer":{"type":"Buffer","data":[252,200,105,65,137,210,105,232,121,100,83,234,129,221,63,246,173,233,1,152]},"announce":[],"urlList":[]}}